<svg xmlns="http://www.w3.org/2000/svg" width="50.706" height="60.4"><path fill="#FFF" d="M28.778 4.6s-.2-2.7-.2-2.9c0-.2-.7-.3-.7.2v2.7h.9zm-28.6 5.6s5 4.8 10 7.1c5.1 2.2 13.2 3.9 13.2 8.7 0 5 .102 7.1.102 7.1s-1.402-1.7-2.801-1.7c-1.4 0-2.801 1.898-5.4 1.8-2.6-.2-3.6-1.4-3.6-1.4l3.2-1.899s-5.2 2-7.6-1.198c.899 0 3.899-.7 4.3-1.603-1.2.2-5.8 1.103-7.8-2.5.5 0 5.8.2 5.8-1.199-1 0-7.3-.301-8.8-5.5.5.301 3.399 1.301 4.2 1.101-.801-.7-4.2-3.8-4.801-6.5-.4-1.402 0-2.302 0-2.302zm50.4 0s-5 4.8-10 7.1c-5.1 2.2-13.2 3.9-13.2 8.7 0 5-.1 7.1-.1 7.1s1.4-1.699 2.8-1.699 2.8 1.898 5.4 1.801c2.6-.2 3.6-1.4 3.6-1.4l-3.2-1.9s5.2 2 7.602-1.199c-.9 0-3.9-.7-4.301-1.602 1.199.199 5.801 1.102 7.801-2.5-.5 0-5.801.199-5.801-1.199 1 0 7.301-.301 8.801-5.5-.5.3-3.4 1.3-4.2 1.1.8-.7 4.2-3.8 4.8-6.5.1-.4.1-.8.1-1.1.098-.702-.102-1.202-.102-1.202z"/><path fill="#FFF" d="M21.979 6s-.302 13.8 0 14.2c.3.3 2.1.5 2.3 3.8.2 3.4.8 13.3-1.3 23.7-1.101 6.899-2.8 12.6 2.3 12.7V15.797s-.5-2.3-.5-3.8-.102-6-.102-6h-.6s-.1 6.6-.199 8.1c-.101 1.5-.201 2.601-.5 2.601-.301 0-.601-3.101-.601-5.601s-.101-5.2-.101-5.2h-.698V6zm6.7 0s.301 13.8 0 14.2c-.301.3-2.101.5-2.301 3.8-.199 3.4-.8 13.3 1.301 23.7 1.101 6.899 2.801 12.6-2.301 12.7V15.797s.5-2.3.5-3.8.102-6 .102-6h.6s.1 6.6.2 8.1.2 2.601.5 2.601.601-3.101.601-5.601.101-5.2.101-5.2l.697.103zm-6.601-1.4s.2-2.7.2-2.9c0-.2.7-.3.7.2v2.7h-.9zm1.901 0v-3c0-.2.5-.4.5.6s.198 2.5.198 2.5l-.698-.1zm2.799.1v-3c0-.2-.5-.4-.5.6s-.2 2.5-.2 2.5l.7-.1z"/><path fill="none" stroke="#FFF" d="M37.479 2.7c0 1.5-5.4 2.7-12.101 2.7-6.701 0-12.1-1.2-12.1-2.7S18.677 0 25.378 0c6.601 0 12.101 1.2 12.101 2.7h0z"/></svg>