<svg xmlns="http://www.w3.org/2000/svg" width="233.4" height="37.601" viewBox="0 8.501 233.4 37.601"><path fill="#FFF" d="M30.2 36.301h-2.399l-3.5 7H15.5V12.102l4.7-2V8.501H3.4v1.601l4.7 2v30.399l-4.7 2v1.601h25.9l.9-9.801zm36.9.801h-2.3L61.5 43.5H49.6v-15H59l2 4.7h2.2V20.602H61l-2 5.1h-9.4v-14.6h11.5l2.8 6.5h2.2v-9H37.6v1.6l4.699 2v30.399l-4.699 2v1.601h28.8l.7-9.1zm41.301-1.702h-2.5l-3.102 7.701c-.398.198-3.398.397-4.102.397C89 43.5 84 37 84 27.801 84 23.102 85.301 18.5 88.6 15c3.1-3.199 7.301-4 11.6-4 .9 0 1.602 0 2.5.2l2.801 7.601h2.5V9.5c-3.698-1-7.301-1.6-11-1.6-12.301 0-20.6 7.5-20.6 20 0 11.699 7.1 18.699 18.699 18.699 4.301 0 8.398-.899 12.5-2l.801-9.199zM152.5 46.102v-1.601l-4.6-1.899-12.7-18.5L147 12.001l4.7-1.899V8.501h-13.5v1.601l3.5 1.699-12.897 15L141.7 46h10.8v.102zm-19.3 0v-1.601l-4.699-2-.2-30.399 4.801-2V8.501h-16.5v1.601l4.699 2v30.399l-4.699 2v1.601H133.2zm53.4-9h-2.3L181 43.5h-11.8v-15h9.4l2 4.7h2.199V20.602H180.6l-2 5.1h-9.4v-14.6h11.5l2.801 6.5h2.199v-9h-28.5v1.6l4.701 2v30.399l-4.701 2v1.601H186l.6-9.1zm44.401 9v-1.601l-4.601-1.899-10.3-15.199c5.101-1 8.399-4.5 8.399-9.8 0-2.7-1-4.9-3.101-6.7-2.603-2.2-5.603-2.4-8.899-2.4h-16.8v1.601l4.701 2v30.399l-4.701 2v1.602H212.5v-1.602l-4.701-2v-14.1H209l11.2 17.699h10.801zm-14-27.801c0 4-2.302 7.602-6.601 7.602h-2.603V11.102h2.5c4.404 0 6.704 3 6.704 7.199z"/></svg>