<?xml version="1.0" encoding="utf-8"?>
<!-- Generator: Adobe Illustrator 15.0.2, SVG Export Plug-In . SVG Version: 6.00 Build 0)  -->
<!DOCTYPE svg PUBLIC "-//W3C//DTD SVG 1.1//EN" "http://www.w3.org/Graphics/SVG/1.1/DTD/svg11.dtd">
<svg version="1.1" id="Ebene_1" xmlns="http://www.w3.org/2000/svg" xmlns:xlink="http://www.w3.org/1999/xlink" x="0px" y="0px"
	 width="50.706px" height="60.4px" viewBox="0 0 50.706 60.4" enable-background="new 0 0 50.706 60.4" xml:space="preserve">
<g>
	<path fill="#FFFFFF" d="M28.778,4.6c0,0-0.2-2.7-0.2-2.9c0-0.2-0.7-0.3-0.7,0.2s0,2.7,0,2.7H28.778L28.778,4.6z"/>
	<g>
		<path fill="#FFFFFF" d="M0.178,10.2c0,0,5,4.8,10,7.1c5.1,2.2,13.2,3.9,13.2,8.7c0,5,0.102,7.1,0.102,7.1S22.078,31.4,20.679,31.4
			c-1.4,0-2.801,1.898-5.4,1.8c-2.6-0.2-3.6-1.4-3.6-1.4l3.2-1.899c0,0-5.2,2-7.6-1.198c0.899,0,3.899-0.7,4.3-1.603
			c-1.2,0.2-5.8,1.103-7.8-2.5c0.5,0,5.8,0.2,5.8-1.199c-1,0-7.3-0.301-8.8-5.5c0.5,0.301,3.399,1.301,4.2,1.101
			c-0.801-0.7-4.2-3.8-4.801-6.5C-0.222,11.1,0.178,10.2,0.178,10.2L0.178,10.2z"/>
		<path fill="#FFFFFF" d="M50.578,10.2c0,0-5,4.8-10,7.1c-5.1,2.2-13.2,3.9-13.2,8.7c0,5-0.1,7.1-0.1,7.1s1.4-1.699,2.8-1.699
			c1.4,0,2.8,1.898,5.4,1.801c2.6-0.2,3.6-1.4,3.6-1.4l-3.2-1.9c0,0,5.2,2,7.602-1.199c-0.9,0-3.9-0.7-4.301-1.602
			c1.199,0.199,5.801,1.102,7.801-2.5c-0.5,0-5.801,0.199-5.801-1.199c1,0,7.301-0.301,8.801-5.5c-0.5,0.3-3.4,1.3-4.2,1.1
			c0.8-0.7,4.2-3.8,4.8-6.5c0.1-0.4,0.1-0.8,0.1-1.1l0,0C50.778,10.7,50.578,10.2,50.578,10.2L50.578,10.2z"/>
		<path fill="#FFFFFF" d="M21.979,6c0,0-0.302,13.8,0,14.2c0.3,0.3,2.1,0.5,2.3,3.8c0.2,3.4,0.8,13.3-1.3,23.7
			c-1.101,6.899-2.8,12.6,2.3,12.7c0-3.4,0-44.603,0-44.603s-0.5-2.3-0.5-3.8s-0.102-6-0.102-6h-0.6c0,0-0.1,6.6-0.199,8.1
			c-0.101,1.5-0.201,2.601-0.5,2.601c-0.301,0-0.601-3.101-0.601-5.601s-0.101-5.2-0.101-5.2h-0.698V6z"/>
		<path fill="#FFFFFF" d="M28.679,6c0,0,0.301,13.8,0,14.2c-0.301,0.3-2.101,0.5-2.301,3.8c-0.199,3.4-0.8,13.3,1.301,23.7
			c1.101,6.899,2.801,12.6-2.301,12.7c0-3.4,0-44.603,0-44.603s0.5-2.3,0.5-3.8s0.102-6,0.102-6h0.6c0,0,0.1,6.6,0.2,8.1
			s0.2,2.601,0.5,2.601s0.601-3.101,0.601-5.601s0.101-5.2,0.101-5.2L28.679,6L28.679,6z"/>
		<path fill="#FFFFFF" d="M22.078,4.6c0,0,0.2-2.7,0.2-2.9c0-0.2,0.7-0.3,0.7,0.2s0,2.7,0,2.7H22.078L22.078,4.6z"/>
		<path fill="#FFFFFF" d="M23.979,4.6c0,0,0-2.8,0-3c0-0.2,0.5-0.4,0.5,0.6s0.198,2.5,0.198,2.5L23.979,4.6L23.979,4.6z"/>
		<path fill="#FFFFFF" d="M26.778,4.7c0,0,0-2.8,0-3c0-0.2-0.5-0.4-0.5,0.6s-0.2,2.5-0.2,2.5L26.778,4.7L26.778,4.7z"/>
		<path fill="none" stroke="#FFFFFF" d="M37.479,2.7c0,1.5-5.4,2.7-12.101,2.7c-6.701,0-12.1-1.2-12.1-2.7S18.677,0,25.378,0
			C31.979,0,37.479,1.2,37.479,2.7L37.479,2.7z"/>
	</g>
</g>
</svg>
