<?xml version="1.0" encoding="utf-8"?>
<!-- Generator: Adobe Illustrator 15.0.2, SVG Export Plug-In . SVG Version: 6.00 Build 0)  -->
<!DOCTYPE svg PUBLIC "-//W3C//DTD SVG 1.1//EN" "http://www.w3.org/Graphics/SVG/1.1/DTD/svg11.dtd">
<svg version="1.1" id="Ebene_2" xmlns="http://www.w3.org/2000/svg" xmlns:xlink="http://www.w3.org/1999/xlink" x="0px" y="0px"
	 width="233.4px" height="37.601px" viewBox="0 8.501 233.4 37.601" enable-background="new 0 8.501 233.4 37.601"
	 xml:space="preserve">
<path fill="#FFFFFF" d="M30.2,36.301h-2.399l-3.5,7H15.5V12.102l4.7-2V8.501H3.4v1.601l4.7,2v30.399l-4.7,2v1.601H29.3L30.2,36.301
	L30.2,36.301z M67.1,37.102H64.8L61.5,43.5H49.6v-15H59l2,4.7h2.2V20.602H61l-2,5.1H49.6v-14.6h11.5l2.8,6.5h2.2v-9H37.6v1.6
	l4.699,2v30.399l-4.699,2v1.601h28.8L67.1,37.102L67.1,37.102z M108.401,35.4h-2.5l-3.102,7.701
	c-0.398,0.198-3.398,0.397-4.102,0.397C89,43.5,84,37,84,27.801C84,23.102,85.301,18.5,88.6,15c3.1-3.199,7.301-4,11.6-4
	c0.9,0,1.602,0,2.5,0.2l2.801,7.601h2.5V9.5c-3.698-1-7.301-1.6-11-1.6c-12.301,0-20.6,7.5-20.6,20
	c0,11.699,7.1,18.699,18.699,18.699c4.301,0,8.398-0.899,12.5-2L108.401,35.4L108.401,35.4z M152.5,46.102v-1.601l-4.6-1.899
	l-12.7-18.5L147,12.001l4.7-1.899V8.501h-13.5v1.601l3.5,1.699l-12.897,15L141.7,46h10.8V46.102z M133.2,46.102v-1.601l-4.699-2
	l-0.2-30.399l4.801-2V8.501h-16.5v1.601l4.699,2v30.399l-4.699,2v1.601H133.2L133.2,46.102z M186.6,37.102H184.3L181,43.5h-11.8v-15
	h9.4l2,4.7h2.199V20.602H180.6l-2,5.1h-9.4v-14.6h11.5l2.801,6.5h2.199v-9h-28.5v1.6l4.701,2v30.399l-4.701,2v1.601H186
	L186.6,37.102L186.6,37.102z M231.001,46.102v-1.601l-4.601-1.899l-10.3-15.199c5.101-1,8.399-4.5,8.399-9.8c0-2.7-1-4.9-3.101-6.7
	c-2.603-2.2-5.603-2.4-8.899-2.4h-16.8v1.601l4.701,2v30.399l-4.701,2v1.602h16.801v-1.602l-4.701-2v-14.1h1.201l11.2,17.699
	H231.001L231.001,46.102z M217.001,18.301c0,4-2.302,7.602-6.601,7.602h-2.603V11.102h2.5
	C214.701,11.102,217.001,14.102,217.001,18.301L217.001,18.301z"/>
</svg>
