<?xml version="1.0" encoding="utf-8"?><!DOCTYPE svg PUBLIC "-//W3C//DTD SVG 1.1//EN" "http://www.w3.org/Graphics/SVG/1.1/DTD/svg11.dtd"><svg width="443" height="346" viewBox="0 0 443 346" xmlns="http://www.w3.org/2000/svg" xmlns:xlink="http://www.w3.org/1999/xlink"><view id="camera" viewBox="241 248.8 87 65"/><svg version="1.1" id="aaEbene_1" x="241" y="248.8" viewBox="-251 377.4 87 65" xml:space="preserve" width="87" height="65" xmlns="http://www.w3.org/2000/svg"><style>.aast0{fill:#fff}</style><path class="aast0" d="M-207.5 402c-6.5 0-11.7 5.2-11.7 11.7s5.2 11.7 11.7 11.7 11.7-5.2 11.7-11.7-5.2-11.7-11.7-11.7z"/><path class="aast0" d="M-171.2 387.4H-193l-1.5-6.3c0-1.4-1.1-2.7-2.5-2.7h-19.7c-1.4 0-2.5 1.3-2.5 2.7l-1.5 6.3h-23.1c-3.4 0-6.2 2-6.2 5.4v41.9c0 3.4 2.8 6.7 6.2 6.7h72.7c3.4 0 6.2-3.3 6.2-6.7v-41.9c-.1-3.4-2.9-5.4-6.3-5.4zm-36.3 45.4c-10.5 0-19.1-8.5-19.1-19.1 0-10.5 8.5-19.1 19.1-19.1 10.5 0 19.1 8.5 19.1 19.1 0 10.5-8.6 19.1-19.1 19.1z"/></svg><view id="check" viewBox="254 96.8 22 22"/><svg width="22" height="22" viewBox="-1 -1 22 22" x="254" y="96.8" xmlns="http://www.w3.org/2000/svg"><path d="M18.732 6.253a.46.46 0 0 1 0 .65L8.442 16.87a.498.498 0 0 1-.67 0l-5.504-5.373a.46.46 0 0 1 0-.65l2.193-2.124a.498.498 0 0 1 .67 0l2.685 2.6a.498.498 0 0 0 .67 0l7.382-7.193a.498.498 0 0 1 .671 0l2.193 2.123z" fill="#D71C7A" fill-rule="evenodd"/></svg><view id="checkbox" viewBox="298 96.8 22 22"/><svg width="22" height="22" viewBox="-1 -1 22 22" x="298" y="96.8" xmlns="http://www.w3.org/2000/svg"><rect stroke="#CFD7D7" x="2" y="3" width="14" height="14" rx="4" fill="none" fill-rule="evenodd"/></svg><view id="checkbox_checked" viewBox="202 122.8 22 22"/><svg width="22" height="22" viewBox="-1 -1 22 22" x="202" y="122.8" xmlns="http://www.w3.org/2000/svg"><g fill="none" fill-rule="evenodd"><rect stroke="#CFD7D7" x="2" y="3" width="14" height="14" rx="4"/><path d="M19.732 5.253a.46.46 0 0 1 0 .65L9.442 15.87a.498.498 0 0 1-.67 0l-5.504-5.373a.46.46 0 0 1 0-.65l2.193-2.124a.498.498 0 0 1 .67 0l2.685 2.6a.498.498 0 0 0 .67 0l7.382-7.193a.498.498 0 0 1 .671 0l2.193 2.123z" fill="#D71C7A"/></g></svg><view id="close" viewBox="322.5 193.6 37 37"/><svg width="37" height="37" viewBox="-1 -1 37 37" x="322.5" y="193.6" xmlns="http://www.w3.org/2000/svg"><path d="M11.879 9.316c.278-.092.462 0 .647.185l4.854 4.855.185.185.185-.185 4.855-4.854c.324-.324.508-.324.832 0l2.22 2.22c.276.277.323.507 0 .831l-4.809 4.808-.185.185.185.185 4.809 4.808c.323.324.323.508 0 .832l-2.174 2.173c-.278.277-.508.324-.831 0l-4.855-4.855-.185-.185-.185.185-4.854 4.854c-.185.185-.37.278-.648.185l-2.588-2.59c-.093-.277 0-.462.185-.647l4.855-4.854.185-.185-.185-.185-4.856-4.853c-.185-.185-.277-.37-.185-.648.832-.74 1.665-1.571 2.543-2.45z" fill="#526470" fill-rule="evenodd"/></svg><view id="close_circle" viewBox="228 96.8 26 26"/><svg version="1.1" id="afEbene_1" x="228" y="96.8" viewBox="-286 407.9 26 26" xml:space="preserve" width="26" height="26" xmlns="http://www.w3.org/2000/svg"><style>.afst0{fill:#d71c7a}.afst1{fill:#fff}</style><g id="afPage-1_1_"><circle id="afOval-4" class="afst0" cx="-273" cy="420.9" r="11"/><g id="afclose-copy" transform="translate(6 5)"><g id="afPage-1"><g id="af_x32_2_x5F_plus"><path id="afShape" class="afst1" d="M-282.8 410.4c.2-.1.3 0 .4.1l3.2 3.2.1.1.1-.1 3.2-3.2c.2-.2.3-.2.6 0l1.5 1.5c.2.2.2.3 0 .6l-3.2 3.2-.1.1.1.1 3.2 3.2c.2.2.2.3 0 .6l-1.4 1.4c-.2.2-.3.2-.6 0l-3.2-3.2-.1-.1-.1.1-3.2 3.2c-.1.1-.2.2-.4.1l-1.7-1.7c-.1-.2 0-.3.1-.4l3.2-3.2.1-.1-.1-.1-3.2-3.2c-.1-.1-.2-.2-.1-.4.5-.6 1-1.2 1.6-1.8z"/></g></g></g></g></svg><view id="close_circle_small" viewBox="246 122.8 22 22"/><svg width="22" height="22" viewBox="-1 -1 22 22" x="246" y="122.8" xmlns="http://www.w3.org/2000/svg"><g transform="translate(1)" fill="none" fill-rule="evenodd"><ellipse fill="#475C6D" cx="9" cy="9.83" rx="9" ry="9.087"/><path d="M5.89 5.287c.165-.083.246 0 .328.083l2.618 2.643.082.083L9 8.013l2.618-2.643c.164-.166.246-.166.491 0l1.227 1.239c.164.165.164.248 0 .495l-2.618 2.644-.082.082.082.083 2.618 2.644c.164.165.164.247 0 .495l-1.145 1.157c-.164.165-.246.165-.491 0l-2.618-2.644L9 11.483l-.082.082L6.3 14.21c-.082.082-.164.165-.327.082l-1.391-1.404c-.082-.165 0-.248.082-.33l2.618-2.644.082-.083-.082-.082-2.618-2.644c-.082-.082-.164-.165-.082-.33.409-.496.818-.991 1.309-1.487z" fill="#FFF"/></g></svg><view id="cookbook_check" viewBox="377.5 210.6 18 18"/><svg width="18" height="18" viewBox="-1 -1 18 18" x="377.5" y="210.6" xmlns="http://www.w3.org/2000/svg"><path d="M6.438 14.954c-.39 0-.78-.173-1.04-.52L2.064 10.06c-.433-.564-.303-1.386.26-1.82.563-.433 1.386-.303 1.82.26l2.165 2.902 5.5-8.792c.39-.607 1.17-.78 1.777-.433.606.39.78 1.169.433 1.775L7.52 14.347c-.217.347-.607.607-1.04.607h-.043z" fill="#A90959" fill-rule="evenodd"/></svg><view id="cookbook_heart" viewBox="328 248.8 57 57"/><svg width="57" height="57" viewBox="-1 -1 57 57" x="328" y="248.8" xmlns="http://www.w3.org/2000/svg"><path d="M49.632 11.604c-5.096-4.805-13.541-4.805-18.637 0L27.5 14.807l-3.495-3.203c-5.096-4.805-13.54-4.805-18.637 0-5.824 5.387-5.824 14.123 0 19.51L27.5 51.645l22.132-20.53c5.824-5.387 5.824-14.123 0-19.51z" fill="#27A8B0" fill-rule="evenodd"/></svg><view id="cookbook_heartvivid" viewBox="241 152 57 57"/><svg width="57" height="57" viewBox="-1 -1 57 57" x="241" y="152" xmlns="http://www.w3.org/2000/svg"><path d="M49.632 9.781c-5.096-4.805-13.541-4.805-18.637 0L27.5 12.985 24.005 9.78c-5.096-4.805-13.54-4.805-18.637 0-5.824 5.388-5.824 14.124 0 19.511L27.5 49.822l22.132-20.53c5.824-5.387 5.824-14.123 0-19.51z" fill="#D71C7A" fill-rule="evenodd"/></svg><view id="cookbook_reply" viewBox="359.5 210.6 18 18"/><svg width="18" height="18" viewBox="-1 -1 18 18" x="359.5" y="210.6" xmlns="http://www.w3.org/2000/svg"><path d="M9.592 9.117v3.869L16 7.02 9.592 1.298v3.426C1.814 4.724 0 13.389 0 13.389c2.217-3.91 5.36-4.272 9.592-4.272z" fill="#27A8B0" fill-rule="evenodd"/></svg><view id="create" viewBox="202 96.8 26 26"/><svg width="26" height="26" viewBox="-1 -1 26 26" x="202" y="96.8" xmlns="http://www.w3.org/2000/svg"><path d="M13.17 5.74c.173.086.217.216.217.39v4.723h4.723c.303 0 .39.087.39.39v2.08c0 .26-.087.39-.39.39h-4.68v4.68c0 .303-.087.39-.39.39h-2.037c-.26 0-.39-.087-.39-.39V13.67H5.89c-.173 0-.303-.044-.39-.217v-2.427c.087-.173.217-.216.39-.216h4.723V6.086c0-.173.044-.303.217-.39.737.044 1.517.044 2.34.044z" fill="#FFF" fill-rule="evenodd"/></svg><view id="image_placeholder" viewBox="0 0 202 152"/><svg width="202" height="152" viewBox="-1 -1 202 152" xmlns="http://www.w3.org/2000/svg"><g fill="none" fill-rule="evenodd"><path fill="#E0F5F6" d="M-11-4h223v158H-11z"/><g fill="#FFF"><path d="M99.5 67c-6.5 0-11.7 5.2-11.7 11.7 0 6.5 5.2 11.7 11.7 11.7 6.5 0 11.7-5.2 11.7-11.7 0-6.5-5.2-11.7-11.7-11.7z"/><path d="M135.8 52.4H114l-1.5-6.3c0-1.4-1.1-2.7-2.5-2.7H90.3c-1.4 0-2.5 1.3-2.5 2.7l-1.5 6.3H63.2c-3.4 0-6.2 2-6.2 5.4v41.9c0 3.4 2.8 6.7 6.2 6.7h72.7c3.4 0 6.2-3.3 6.2-6.7V57.8c-.1-3.4-2.9-5.4-6.3-5.4zM99.5 97.8c-10.5 0-19.1-8.5-19.1-19.1 0-10.5 8.5-19.1 19.1-19.1 10.5 0 19.1 8.5 19.1 19.1 0 10.5-8.6 19.1-19.1 19.1z"/></g></g></svg><view id="info" viewBox="224 122.8 22 22"/><svg width="22" height="22" viewBox="-1 -1 22 22" x="224" y="122.8" xmlns="http://www.w3.org/2000/svg"><path fill="#4D5D6A" d="M9.858 0C4.343.065-.063 4.604.001 10.118c.065 5.515 4.604 9.922 10.118 9.857 5.516-.064 9.922-4.604 9.857-10.118C19.912 4.343 15.373-.064 9.858 0zm1.109 3.322c1.021 0 1.323.586 1.323 1.259 0 .846-.674 1.628-1.822 1.628-.956 0-1.413-.479-1.39-1.282-.023-.671.541-1.605 1.889-1.605zM8.361 16.24c-.695 0-1.195-.412-.717-2.277l.803-3.28c.131-.521.152-.738 0-.738-.217 0-1.107.369-1.65.717l-.348-.565c1.695-1.412 3.626-2.236 4.452-2.236.695 0 .804.824.457 2.084l-.914 3.451c-.151.608-.086.826.065.826.218 0 .89-.26 1.564-.783l.392.523c-1.629 1.63-3.41 2.278-4.104 2.278z"/></svg><view id="naehrwerte" viewBox="413.5 193.6 13 13"/><svg width="13" height="13" viewBox="-1 -1 13 13" x="413.5" y="193.6" xmlns="http://www.w3.org/2000/svg"><path fill="#2EABB2" d="M9.339.414v10.089c0 .25-.207.453-.456.453H8.43a.455.455 0 0 1-.455-.453V6.867s-1.363-.41-1.363-1.365V2.231c0-.386.25-.841.569-1.068L8.771.095c.318-.205.568-.069.568.319zM5.067.118c-.023-.045-.069-.045-.091 0l-.137.296a.401.401 0 0 0-.045.158v2.182h-.455V.572a.441.441 0 0 0-.046-.159L4.158.118c-.023-.045-.069-.045-.092 0L3.93.414a.401.401 0 0 0-.045.158v2.182h-.456V.572a.437.437 0 0 0-.044-.159L3.249.118c-.022-.045-.068-.045-.091 0l-.137.296a.429.429 0 0 0-.045.158v2.182h-.454V.572a.407.407 0 0 0-.047-.159L2.34.118c-.023-.045-.069-.045-.092 0l-.136.296a.413.413 0 0 0-.046.158V3.436c0 .137.046.319.091.432l.817 1.614v4.998c0 .251.205.456.454.456h.456c.25 0 .456-.205.456-.456v-5l.817-1.614c.046-.113.09-.294.09-.432V.571a.532.532 0 0 0-.044-.182L5.067.118z"/></svg><view id="radio" viewBox="268 122.8 22 22"/><svg width="22" height="22" viewBox="-1 -1 22 22" x="268" y="122.8" xmlns="http://www.w3.org/2000/svg"><circle stroke="#CFD7D7" cx="10" cy="10" r="8" fill="none" fill-rule="evenodd"/></svg><view id="radio_checked" viewBox="276 96.8 22 22"/><svg width="22" height="22" viewBox="-1 -1 22 22" x="276" y="96.8" xmlns="http://www.w3.org/2000/svg"><g fill="none" fill-rule="evenodd"><circle stroke="#CFD7D7" cx="10" cy="10" r="8"/><circle fill="#D71C7A" cx="10" cy="10" r="4"/></g></svg><view id="uhr" viewBox="426.5 193.6 13 13"/><svg width="13" height="13" viewBox="-1 -1 13 13" x="426.5" y="193.6" xmlns="http://www.w3.org/2000/svg"><path fill="#2EABB2" d="M5.512.041C2.503.041.041 2.503.041 5.512s2.462 5.471 5.471 5.471 5.471-2.462 5.471-5.471S8.521.041 5.512.041zm0 9.45a3.99 3.99 0 0 1-3.978-3.979 3.99 3.99 0 0 1 3.978-3.978 3.99 3.99 0 0 1 3.979 3.978 3.99 3.99 0 0 1-3.979 3.979zm.995-3.979a.999.999 0 0 1-.995.995.93.93 0 0 1-.845-.498h-.896c-.149 0-.248-.099-.248-.248v-.472c0-.125.099-.274.248-.274h.87c.075-.249.225-.274.374-.374V2.776c0-.149.124-.248.248-.248h.497c.125 0 .249.125.249.248v1.865c.249.174.498.498.498.871z"/></svg><view id="vegan" viewBox="359.5 193.6 32 17"/><svg width="32" height="17" viewBox="-1 -1 32 17" x="359.5" y="193.6" xmlns="http://www.w3.org/2000/svg"><g fill="#66B54F"><path d="M29.921 1.391c-4.489 2.38-4.148 7.28-7.304 9.49-2.354 1.673-5.701.825-7.619.097 0 0-1.31 1.503-2.233 3.493-.194.415-.776.293-1.165 0a.687.687 0 0 1-.218-.24l-.072-.148c-.607-1.188-1.384-2.062-1.384-2.062-1.286.46-3.471 1.02-5.047-.074-2.087-1.43-1.869-4.634-4.83-6.186-.679-.364 5.825-1.893 9.221.072 2.524 1.434 2.379 3.786 2.282 4.66C8.325 6.732 3.447 6.9 3.447 6.9s5.849 1.99 8.348 5.946C15.337 6.343 24.804 3.09 24.804 3.09s-7.355-.291-12.281 5.533c-.121-1.334-.34-4.926 3.445-7.134 5.169-2.984 14.997-.655 13.953-.098z"/><path d="M11.6 14.497a.336.336 0 0 1-.194-.171c0-.025-.024-.047-.024-.074a.692.692 0 0 0 .218.245z"/></g></svg><view id="vegetarian" viewBox="391.5 193.6 22 17"/><svg width="22" height="17" viewBox="-1 -1 22 17" x="391.5" y="193.6" xmlns="http://www.w3.org/2000/svg"><path fill="#BFD35A" d="M5.28 1.551C1.422 3.792 1.645 7.449 1.766 8.8c4.988-5.895 12.44-5.613 12.44-5.613S3.645 6.822.534 14.092c-.243.565 1.151 1.312 1.475.646a16.755 16.755 0 0 1 2.282-3.535c1.958.728 5.332 1.575 7.735-.102 3.168-2.281 2.847-7.249 7.39-9.652 1.068-.564-8.907-2.927-14.136.102z"/></svg><view id="wochentag_di" viewBox="120.5 248.8 120.5 96.8"/><svg version="1.1" id="auEbene_2" x="120.5" y="248.8" viewBox="-1 -1 120.5 96.8" xml:space="preserve" width="120.5" height="96.8" xmlns="http://www.w3.org/2000/svg"><style>.auwt_di_st0{opacity:.7;fill:#fff;enable-background:new}.auwt_di_st1{fill:#fff}</style><g id="auXMLID_482_"><path id="auXMLID_68_" class="auwt_di_st0" d="M0 0h110s14.9 28.1 5.3 51.3-26.7 45.5-66.2 43.4S0 61.3 0 61.3V0z"/><g id="auXMLID_56_"><g id="auXMLID_66_"><path id="auXMLID_136_" class="auwt_di_st1" d="M30.7 23.9c5.8-1.1 14 .3 17.5 5.3 1.8 2.6 3.1 6.2 3.9 10.1 1 4.5 1.4 9.3 1.4 13.1.1 6.3-8.2 11.1-14.3 12.5-.1 0-.2 0-.3.1-2.6-13.2-5.4-27.2-8.2-41.1zm6.7 6.2c.4 2.3 1.4 6.3 2.1 9.2 1.2 5.8 2.3 11.8 3.6 17.6l2.1-1.2c1.9-1.1 2.3-3.4 2.3-5.9 0-.8-.4-4.2-1.2-8-.9-4.3-2.5-9.1-4.5-10.6-1.4-1.3-2.8-1.4-4.4-1.1z"/><path id="auXMLID_67_" class="auwt_di_st1" d="M66.4 20.1c.2 1.1.1 2.1-.6 2.9-.8.9-2.3 2-3.8 1.5-1.6-.6-2.8-1.7-3.1-3.2-.1-.4-.1-.8-.1-1.3.2-1.8 1.5-2.9 3-3.2 1.2-.3 2.6 0 3.3.8.6.7 1.1 1.6 1.3 2.5zm7.8 36.7c-.7.2-1.5.4-2.5.6s-2.1.5-3.2.7c-2.2-8.5-4.4-17.7-6.1-25.6-.2-1.1-.5-2.2-.7-3.3 1.8-.5 3.7-1 4.9-1.2 2.6 9 4.9 18.6 7.6 28.8z"/></g><g id="auXMLID_57_"><path id="auXMLID_62_" d="M58.2 37.2c.9 2.9 1.6 5.4 2.2 7.8.8 3.7 1 6.8.7 10.5-.6 5.2-3 10.2-16 14.8-2.6-1.4-5.5-2.8-7.1-4.4-.2-.8-.4-1.7-.7-2.8-2.2-10.2-4.2-20.5-6.4-31.6-.7-3.8-1.4-7.3-1.7-8.6.1 0 .2 0 .3-.1 2.6-.6 7.3-1 11 .1 8.4 2.2 15.5 7.2 17.7 14.3zM39.1 64.7c6.1-1.3 14.4-6.2 14.3-12.5-.1-3.8-.5-8.6-1.4-13.1-.8-3.8-2.1-7.5-3.9-10.1-3.5-5-11.7-6.4-17.5-5.3 2.7 13.8 5.6 27.9 8.2 41h.3zM46 41.8c.8 3.7 1.2 7.2 1.2 8 .1 2.4-.4 4.8-2.3 5.9l-2.1 1.2c-1.3-5.8-2.4-11.9-3.6-17.6-.6-2.9-1.7-6.9-2.1-9.2 1.6-.3 3-.2 4.4 1.2 2.1 1.4 3.6 6.1 4.5 10.5z"/><path id="auXMLID_58_" d="M73.3 21.6c.5 2.4-1 5-3.2 5.6 1.4.4 3.3.8 4.8 1.6 1.9 10.3 3.8 21.8 5.9 33.2-2 .4-6.5 1-9.3 1.2-2-2.1-2.7-2.9-4-4-2.3-8.7-5.7-23.5-7.2-30.7.9-.3 2.9-.8 3.8-1-2.1-1.4-3.2-1.8-5.2-3.5-.6-.6-1.1-1.3-1.2-2.2-.4-1.8.1-4 1.3-4.9.8-.6 1.7-1.1 2.7-1.3s2.1-.2 3.2.2c2.8 1.1 4.8 2.5 7.4 3.8.4.4.8 1.2 1 2zm-11.7-5c-1.4.3-2.8 1.4-3 3.2 0 .5 0 .9.1 1.3.3 1.5 1.4 2.6 3.1 3.2 1.5.5 3-.5 3.8-1.5.7-.8.8-1.8.6-2.9-.2-.9-.7-1.8-1.3-2.5-.8-.8-2.1-1.1-3.3-.8zm-.1 12.5c.2 1.1.5 2.2.7 3.3 1.7 7.9 3.9 17.1 6.1 25.6 1-.3 2.2-.5 3.2-.7s1.8-.4 2.5-.6c-2.7-10.2-5-19.8-7.6-28.8-1.2.2-3.1.7-4.9 1.2z"/></g></g></g></svg><view id="wochentag_do" viewBox="0 248.8 120.5 96.8"/><svg version="1.1" id="avEbene_2" y="248.8" viewBox="-1 -1 120.5 96.8" xml:space="preserve" width="120.5" height="96.8" xmlns="http://www.w3.org/2000/svg"><style>.avwt_do_st0{opacity:.7;fill:#fff;enable-background:new}.avwt_do_st1{fill:#fff}</style><g id="avXMLID_454_"><path id="avXMLID_217_" class="avwt_do_st0" d="M0 0h110s14.9 28.1 5.3 51.3-26.7 45.5-66.2 43.4S0 61.3 0 61.3V0z"/><g id="avXMLID_206_"><path id="avXMLID_245_" class="avwt_do_st1" d="M25 23.4c6.1-1.2 14.7.4 18.4 5.7 1.9 2.7 3.2 6.6 4.1 10.6 1 4.7 1.4 9.8 1.4 13.7 0 6.6-8.7 11.7-15.2 13-.1 0-.2 0-.4.1-2.7-13.8-5.6-28.6-8.3-43.1zm6.9 6.5c.4 2.4 1.5 6.7 2.1 9.7 1.2 6.1 2.3 12.4 3.7 18.5l2.2-1.3c2-1.2 2.5-3.6 2.4-6.2 0-.9-.4-4.5-1.2-8.4-1-4.6-2.5-9.6-4.7-11.2-1.3-1.2-2.8-1.4-4.5-1.1z"/><path id="avXMLID_215_" class="avwt_do_st1" d="M75 35c1.1 4.6 2.3 9.3 3.4 14.3.4 2.1.6 3.6.5 4.5-.6 2.8-2.4 3.6-6.6 4.6-.2 0-.5.1-.8.2-2.7.6-6 .8-7.1-2.5-1.3-4.1-2.2-8.2-3.2-12.1-1-4.1-1.8-7.4-2.7-11.5-.6-2.8.8-4.4 4-5.3.7-.3 1.8-.7 3.1-1 2.6-.6 5.8-.6 6.9 1.4 1.6 3 1.8 4.4 2.5 7.4zm-8.8-3.7c-1.3.3-2.6 1.4-2.2 3.1 1.3 5.9 4.1 18.3 5 19.2.5.5 1.5.7 2.4.5 1.1-.2 2-.9 1.9-2.1 0-1.9-2.3-11.9-4.3-19-.3-1.5-1.6-1.9-2.8-1.7z"/><path id="avXMLID_211_" d="M53.9 37.1c1 3.1 1.7 5.7 2.2 8.2.8 3.9 1 7.2.6 11-.6 5.5-3.2 10.7-17 15.4-2.7-1.5-5.7-3-7.5-4.7-.2-.8-.4-1.8-.7-3-2.3-10.7-4.3-21.5-6.5-33.3-.7-4-1.5-7.7-1.7-9.1.1 0 .2 0 .4-.1 2.7-.6 7.7-1 11.6.1 9 2.7 16.4 8 18.6 15.5zM33.6 65.9c6.5-1.4 15.2-6.4 15.2-13 0-4-.4-9-1.4-13.7-.9-4.1-2.2-7.9-4.1-10.6-3.7-5.3-12.3-6.8-18.4-5.7 2.8 14.6 5.7 29.3 8.4 43.1.1 0 .2-.1.3-.1zm7.5-24c.8 3.9 1.2 7.5 1.2 8.4.1 2.6-.4 5-2.4 6.2l-2.2 1.3c-1.4-6.2-2.5-12.5-3.7-18.5-.6-3.1-1.7-7.3-2.1-9.7 1.7-.3 3.2-.2 4.6 1.3 2.1 1.4 3.6 6.4 4.6 11z"/><path id="avXMLID_207_" d="M77.7 62.8c-.5.1-.6.1-.6.1-4.9 1-12.4-3.2-13-4.7-1.3-3.2-2.5-7.3-3.3-10.5-1-4.1-2.9-11.8-3.7-15.8-1-4.8 3.6-6.3 8.4-7.4 6.8-1.4 15.4 1.4 15.9 4 .7 3.2 1 6 1.7 9.4.5 2.6 2.4 13 2.8 16.9.4 4.7-.6 6.1-8.2 8zm-12.2-37c-1.3.3-2.4.6-3.1 1-3.1.9-4.5 2.6-4 5.3.9 4.1 1.6 7.4 2.7 11.5 1 3.9 1.9 7.9 3.2 12.1 1.1 3.3 4.4 3.1 7.1 2.5.2 0 .5-.1.8-.2 4.2-.9 6-1.8 6.6-4.6.2-.9 0-2.4-.5-4.5-1.1-5-2.3-9.7-3.4-14.3-.8-3-.9-4.5-2.5-7.3-1-2.1-4.2-2.1-6.9-1.5zm7.7 25.7c.1 1.2-.8 1.9-1.9 2.1-.9.2-1.9 0-2.4-.5-.9-.9-3.7-13.3-5-19.2-.4-1.7.9-2.8 2.2-3.1 1.2-.3 2.5.2 2.8 1.7 2 7.1 4.3 17.1 4.3 19z"/></g></g></svg><view id="wochentag_fr" viewBox="322.5 96.8 120.5 96.8"/><svg version="1.1" id="awEbene_2" x="322.5" y="96.8" viewBox="-1 -1 120.5 96.8" xml:space="preserve" width="120.5" height="96.8" xmlns="http://www.w3.org/2000/svg"><style>.awwt_fr_st0{opacity:.7;fill:#fff;enable-background:new}.awwt_fr_st1{fill:#fff}</style><g id="awXMLID_440_"><path id="awXMLID_276_" class="awwt_fr_st0" d="M0 0h110s14.9 28.1 5.3 51.3-26.7 45.5-66.2 43.4S0 61.3 0 61.3V0z"/><g id="awXMLID_262_"><path id="awXMLID_268_" d="M57.3 31.2c-3.5.9-6.6 1.7-9.5 2.2.2 1.5.5 2.8.9 4.7.4.1 1.4.1 2 0 2.2.8 4.5 1.8 6.7 3 .2.6.3 1.1.3 1.6.4 2.2.5 4.1.8 6.7-2.7.8-4.8 1.8-7 2.2 1.3 5.6 2.3 10.9 3.6 17.5-5.2 1.5-8.1 2.4-11.7 3.1-1.3-1.6-2.6-3.4-3.9-5.2l-8.8-43.6c3.4-.9 16.1-3.5 19.9-4.2 1.5.5 3.6 1.3 5.4 2.2l1.3 9.8zm-11.2 34c-1.1-6-2.1-12-3.6-18.8l8.1-1.8-.8-5-8.2 1.1c-.6-1.7-.5-1.7-.7-2.6-.4-2.5-1.2-4.7-1.9-9.7l11.4-2.7-.9-5.1c-6 1.2-12.2 2.4-17.4 3.6l8.4 41.5 5.6-.5z"/><path id="awXMLID_265_" d="M76.6 29.3c1.4.4 3.3.9 5.2 1.3.5 1.7.8 4.5 1.5 7.4l-6.7 5.4c1 4.8 1.9 9.9 2.8 15 .4 2.5.9 5.1 1.3 7.5-2.4.2-8.7.8-11.1 1-1.8-1.9-2.7-3.4-4-4.5-1.3-9-3.8-25.2-5-34.8l7.2-1.7c1.4.2 3.5.5 5.3.8.2.6.3 2 .6 3.6.6-.3 1.6-.6 2.9-1zM62 28.7c1.4 11 3.1 22.2 4.8 32.8.6 0 1.6-.2 2.9-.4.9-.2 1.8-.4 2.8-.6-1-6-1.9-12.1-3.2-20.5l8.8-5.4c-.5-1-.9-2.3-1.6-3.9-3.1 1.2-5.9 2.4-8.2 3.5-.4-2.2-.8-5.1-1.2-7.1L62 28.7z"/><path id="awXMLID_264_" class="awwt_fr_st1" d="M40.8 65.9l-8.4-41.5c5.2-1.3 11.4-2.4 17.4-3.6l.9 5.1-11.4 2.7c.7 4.9 1.5 7.2 1.9 9.7.2.8.1.9.7 2.6l8.2-1.1.8 5-8.1 1.8c1.5 6.8 2.5 12.8 3.6 18.8l-5.6.5z"/><path id="awXMLID_263_" class="awwt_fr_st1" d="M67.4 27.3c.3 2 .8 4.9 1.2 7.1 2.3-1.1 5-2.3 8.2-3.5.7 1.5 1.1 2.9 1.6 3.9l-8.8 5.4c1.3 8.4 2.2 14.5 3.2 20.5-1 .2-1.9.4-2.8.6-1.2.2-2.3.3-2.9.4-1.7-10.6-3.4-21.8-4.8-32.8l5.1-1.6z"/></g></g></svg><view id="wochentag_mi" viewBox="322.5 0 120.5 96.8"/><svg version="1.1" id="axEbene_2" x="322.5" viewBox="-1 -1 120.5 96.8" xml:space="preserve" width="120.5" height="96.8" xmlns="http://www.w3.org/2000/svg"><style>.axwt_mi_st0{opacity:.7;fill:#fff;enable-background:new}.axwt_mi_st1{fill:#fff}</style><g id="axXMLID_468_"><path id="axXMLID_169_" class="axwt_mi_st0" d="M0 0h110s14.9 28.1 5.3 51.3-26.7 45.5-66.2 43.4S0 61.3 0 61.3V0z"/><g id="axXMLID_153_"><path id="axXMLID_164_" class="axwt_mi_st1" d="M47.5 23.2c1.1-.2 2.8-.5 3.8-.7.5-.1.9-.2 1-.3l8.8 37.9-5.6 1.3-5.3-23.9c-1.1 5-2 10.7-3.1 16.8-.3 2.1-1 6.6-2 8.9-4.5-6.7-9.8-15.8-14-22.5 1.3 4.8 2.8 11.4 3.9 17.1.6 2.8 1.1 5.5 1.5 7.6-1.4.3-2.8.7-4 .9-.4.1-.7.1-1 .2l-8.4-38.4c.5-.1 3.4-.6 4.8-.8 5 6.7 9.9 15.5 14.7 23.1 1.8-9.4 3.4-19.7 4.9-27.2z"/><path id="axXMLID_161_" class="axwt_mi_st1" d="M72.5 20.8c.2 1 .1 2-.6 2.8-.8.9-2.2 1.9-3.6 1.4-1.6-.6-2.6-1.6-2.9-3.1-.1-.4-.1-.8-.1-1.2.2-1.8 1.5-2.8 2.9-3.1 1.2-.2 2.5 0 3.1.8.6.7 1 1.6 1.2 2.4zm7.2 35.4c-.6.2-1.4.4-2.4.6s-2 .4-3.1.7c-2-8.2-4-17-5.6-24.7-.2-1.1-.4-2.1-.7-3.2 1.8-.4 3.6-.9 4.7-1.1 2.5 8.6 4.6 17.9 7.1 27.7z"/><path id="axXMLID_158_" d="M46.2 22.1c.9-.2 6.2-1.4 6.4-1.4 1.9.6 5.2 1.2 8.1 2.4l6.8 41.4-10.1 1.8-3.1-3.6-.9-3.4c-1 4.2-1.3 6.1-1.9 8.4l-6.3-1.2-4-5.3c.5 3.3 1 6.8 1.3 8.7-1.8.4-7.3 1.4-9.5 1.6l-3-4-8.6-40.2c-.1 0 1.2-.3 2.6-.5 1.4-.3 3-.6 3.6-.8 2.8 0 7 0 9.3.3 2 3 3.7 6.3 6.4 11.1 1.6-8.2 1.6-10.5 2.9-15.3zm-18.7 5.1c-1.4.2-4.3.7-4.8.8l8.4 38.4c.3 0 .7-.1 1-.2 1.1-.2 2.6-.6 4-.9-.4-2.1-.9-4.7-1.5-7.6-1.2-5.7-2.7-12.3-3.9-17.1 4.2 6.7 9.5 15.8 14 22.5 1-2.3 1.7-6.7 2-8.9 1.1-6.2 2-11.9 3.1-16.8l5.3 23.9 5.6-1.3-8.8-37.9c-.1.1-.5.2-1 .3-1 .2-2.6.5-3.8.7-1.5 7.5-3 17.8-4.9 27.1-4.8-7.5-9.6-16.3-14.7-23z"/><path id="axXMLID_154_" d="M79 22.4c.5 2.3-1 4.8-3.2 5.3 1.3.4 3.2.8 4.6 1.6 1.7 10 3.5 21 5.4 32-1.9.3-6.3.9-9 1-1.9-2.1-2.6-2.8-3.8-3.9-2.1-8.4-5.3-22.6-6.6-29.6l3.6-.9c-2-1.4-3-1.7-5-3.4-.6-.5-1-1.3-1.2-2.2-.4-1.8.2-3.8 1.3-4.7.8-.6 1.6-1.1 2.6-1.3s2-.1 3.1.3c2.7 1.1 4.6 2.5 7 3.7.7.6 1.1 1.4 1.2 2.1zm-11.2-4.9c-1.4.3-2.7 1.3-2.9 3.1 0 .5 0 .8.1 1.2.3 1.5 1.4 2.5 2.9 3.1 1.4.5 2.9-.5 3.6-1.4.7-.8.8-1.7.6-2.8-.2-.9-.6-1.7-1.2-2.4-.6-.8-1.9-1-3.1-.8zm-.2 12.1c.2 1 .4 2.1.7 3.2 1.6 7.6 3.6 16.5 5.6 24.7 1-.3 2.1-.5 3.1-.7s1.8-.4 2.4-.6c-2.5-9.8-4.6-19.1-7.1-27.7-1.1.2-2.9.7-4.7 1.1z"/></g></g></svg><view id="wochentag_mo" viewBox="120.5 152 120.5 96.8"/><svg version="1.1" id="ayEbene_2" x="120.5" y="152" viewBox="-1 -1 120.5 96.8" xml:space="preserve" width="120.5" height="96.8" xmlns="http://www.w3.org/2000/svg"><style>.aywt_mo_st0{opacity:.7;fill:#fff;enable-background:new}.aywt_mo_st1{fill:#fff}</style><g id="ayXMLID_496_"><path class="aywt_mo_st0" d="M0 0h110s14.9 28.1 5.3 51.3-26.7 45.5-66.2 43.4S0 61.3 0 61.3V0z"/><path class="aywt_mo_st1" d="M42.5 17.3c1.2-.3 2.9-.6 3.9-.9.6-.1 1-.2 1.1-.3l10.2 39.6-5.9 1.5-6.2-25c-1 5.3-1.9 11.3-2.8 17.8-.3 2.3-.9 7-1.9 9.4-4.9-6.9-10.7-16.3-15.3-23.3 1.5 5 3.2 11.9 4.6 17.8.7 3 1.3 5.7 1.8 7.9-1.5.3-3 .8-4.1 1.1-.4.1-.7.2-1.1.2L17 22.9c.6-.1 3.6-.7 5-1 5.5 7 10.8 16.1 16.1 23.9 1.7-9.7 3-20.6 4.4-28.5zM80.6 29c1.2 4.4 2.4 8.9 3.6 13.7.5 2 .7 3.5.5 4.3-.5 2.7-2.3 3.6-6.2 4.5-.2.1-.5.1-.7.2-2.6.6-5.8.9-6.9-2.2-1.3-4-2.3-7.8-3.4-11.5-1.1-3.9-1.9-7.1-2.8-11-.6-2.6.7-4.3 3.7-5.2.7-.3 1.7-.7 3-1 2.5-.6 5.6-.7 6.7 1.2 1.6 2.7 1.7 4.1 2.5 7zm-8.5-3.4c-1.2.3-2.5 1.4-2 3 1.4 5.7 4.3 17.5 5.2 18.4.5.5 1.4.6 2.3.4 1-.2 1.9-.9 1.8-2.1 0-1.8-2.4-11.4-4.5-18.1-.4-1.5-1.7-1.9-2.8-1.6z"/><g id="ayXMLID_16_"><path id="ayXMLID_21_" d="M41.6 17.9c.9-.2 6.5-1.6 6.7-1.7 2 .5 5.5 1.1 8.5 2.3L65 61.9 54.4 64l-3.3-3.7-1.1-3.6c-.9 4.4-1.2 6.5-1.8 8.9l-6.6-1.1-4.4-5.5c.6 3.5 1.3 7.1 1.6 9.1-1.9.4-7.6 1.7-9.9 2l-3.3-4.2-10.1-42.1c-.1 0 1.3-.3 2.8-.6s3.1-.7 3.8-.9c3 0 7.4-.2 9.8 0 2.2 3.1 4.1 6.6 7 11.5 1.5-8.5 1.5-10.8 2.7-15.9zm-19.5 5.8l-5 1 9.8 40.2c.4 0 .7-.1 1.1-.2 1.2-.3 2.7-.7 4.1-1.1-.5-2.2-1.1-5-1.8-7.9-1.4-6-3.1-12.8-4.6-17.8 4.6 6.9 10.4 16.4 15.3 23.3 1-2.4 1.6-7.1 1.9-9.4 1-6.5 1.8-12.5 2.8-17.8l6.2 25 5.9-1.5-10.2-39.6c-.1.1-.5.2-1.1.3-1.1.2-2.8.6-3.9.9-1.4 7.9-2.7 18.8-4.4 28.7-5.3-8-10.6-17.1-16.1-24.1z"/><path id="ayXMLID_17_" d="M84 57.8c-.5.1-.6.1-.6.1-4.7 1.1-12-2.8-12.6-4.3-1.4-3-2.6-6.9-3.4-10-1-3.9-3-11.3-3.9-15.2-1.1-4.6 3.4-6.2 7.9-7.2 6.5-1.5 14.8 1 15.4 3.5.7 3 1.1 5.7 1.9 9 .6 2.5 2.6 12.4 3 16.2.6 4.5-.4 5.9-7.7 7.9zM71.5 22.4c-1.2.3-2.3.7-3 1-3 .9-4.3 2.6-3.7 5.2.9 3.9 1.7 7.1 2.8 11 1.1 3.7 2 7.6 3.4 11.5 1.1 3.2 4.3 2.9 6.9 2.2.2-.1.5-.1.7-.2 4-1 5.7-1.9 6.2-4.5.2-.9-.1-2.4-.5-4.3-1.1-4.8-2.4-9.3-3.6-13.7-.8-2.9-.9-4.3-2.5-7-1.1-1.9-4.1-1.8-6.7-1.2zM79.4 47c.1 1.2-.8 1.8-1.8 2.1-.8.2-1.8.1-2.3-.4-.9-.9-3.8-12.7-5.2-18.4-.4-1.6.8-2.7 2-3s2.4.1 2.7 1.6c2.2 6.7 4.6 16.2 4.6 18.1z"/></g></g></svg><view id="wochentag_sa" viewBox="0 152 120.5 96.8"/><svg version="1.1" id="azEbene_2" y="152" viewBox="-1 -1 120.5 96.8" xml:space="preserve" width="120.5" height="96.8" xmlns="http://www.w3.org/2000/svg"><style>.azwt_sa_st0{opacity:.7;fill:#fff;enable-background:new}.azwt_sa_st1{fill:#fff}</style><g id="azXMLID_426_"><path id="azXMLID_333_" class="azwt_sa_st0" d="M0 0h110s14.9 28.1 5.3 51.3-26.7 45.5-66.2 43.4S0 61.3 0 61.3V0z"/><g id="azXMLID_325_"><g id="azXMLID_361_"><path id="azXMLID_365_" class="azwt_sa_st1" d="M36.8 60.8c2.5-1.8 5.3-4.3 5-7.7s-2.7-5.7-5.7-10.3c-2-3.1-3.5-6-4.3-8.7-.8-3.2-.6-6.4 1.2-9.5 1.2-2.1 3.7-4.3 6.2-5.7l3.5 4.5c-2.4 1.4-4.1 3.4-4.7 4.5-.9 1.5-.9 3.3-.4 5.2.8 3 2.9 6.2 4.9 8.4 2.4 2.8 4.2 6 5 9.1 1.2 4.5.4 8.8-3.2 11.7-1.9 1.6-3 2.5-4.7 3.3l-2.8-4.8z"/><path id="azXMLID_362_" class="azwt_sa_st1" d="M74.9 38.6c1.4 5.2 2.9 11.2 4.6 16-1.3.3-2.4.7-3.5 1-.7.2-1.4.4-2 .4l-1-3c-1.9 1.6-3.7 2.9-5.4 3.4-1.1.3-2.2.3-3.2-.3-1.8-.9-3-3.1-3.7-5.4-.5-1.7-.6-3.5-.2-4.9.8-2.9 5.6-5.5 8.9-6.4-.9-2.9-2.3-9.3-3.7-9.8-1.8-.5-6 .5-7.6.9-.4-1.4-.8-2.1-1.1-3.4-.1-.3-.1-.7-.2-1.1 1-.4 2-.7 3.1-1 3-.8 6.3-1.2 8.4-.5 1.1.3 2.3 1.3 2.8 2.1.9 1.2 2.3 6.2 3.8 12zm-8.6 7.1c-1 1-1.4 2-1 3.4.4 1.7 1.2 2.2 2.8 1.8 1.2-.3 2.5-1.1 3.9-2-.5-2.8-1.4-4.8-1.6-5.6-2.4 1-3.6 1.9-4.1 2.4z"/></g><g id="azXMLID_326_"><path id="azXMLID_331_" d="M34.4 60.5c2.5-1.8 5.1-3.4 5.2-7.2.1-3.2-3.2-6.4-5.4-9.9-2.3-3.4-3.6-6.5-4.3-9.1-1-3.8-.6-6.9.6-9.2 2.4-4.9 6-6.4 8.4-7.7 2 .2 5 .4 7 .5l4.9 6.5c-2.8 1.2-5.3 4.3-5.7 5.9-.5 2.1.9 5.4 3.4 8.4 3.1 3.7 5.9 8.4 7.2 13.1 1.2 4.6.8 9.1-2.7 12.3-2.3 2-3.9 3.3-7.3 5.4l-7.2-2.4-4.1-6.6zm4.6 5.2c1.8-.8 2.8-1.7 4.7-3.3 3.6-2.9 4.4-7.2 3.2-11.7-.8-3.1-2.6-6.3-5-9.1-1.9-2.2-4.1-5.4-4.9-8.4-.5-1.9-.5-3.7.4-5.2.6-1.1 2.3-3 4.7-4.5L38.6 19c-2.5 1.5-5 3.6-6.2 5.7-1.8 3.1-2 6.3-1.2 9.5.7 2.8 2.3 5.7 4.3 8.7 3 4.6 5.3 6.9 5.7 10.3.3 3.4-2.5 5.9-5 7.7l2.8 4.8z"/><path id="azXMLID_327_" d="M71.6 61.7c-3.7 1.3-7.8-3.3-9.3-4.9-1.8-2-2.9-4.1-3.4-5.9-.5-1.9-.4-3.5-.2-4.6.3-1.4 1.5-4.7 8.8-7.5-.3-1.1-.5-2-.7-2.7-1.8-.3-4.7 0-6.3.4-1.1-1.4-2.6-3.3-3.6-4.6l-1.8-6.3c1.7-.8 3.9-1.4 5.2-1.7 4-1.1 7.6-1.1 11.6.4 2.3.9 6.9 2.8 7.8 6.2 1.2 4.5 1.9 7.9 2.9 12.4 1.2 5.7 2.1 10.3 3.3 16-3 1.1-5.2 1.9-7.9 2.8l-2.5-2.1c-.9 1.1-2.6 1.7-3.9 2.1zM68 24.6c-2.1-.6-5.3-.3-8.4.5-1.1.3-2.2.6-3.1 1 .1.4.1.8.2 1.1.4 1.3.7 2 1.1 3.4 1.6-.4 5.8-1.4 7.6-.9 1.4.4 2.8 6.8 3.7 9.8-3.3.9-8.1 3.6-8.9 6.4-.4 1.3-.3 3.1.2 4.9.6 2.3 1.9 4.5 3.7 5.4 1 .5 2.1.6 3.2.3 1.7-.5 3.6-1.7 5.4-3.4l1 3c.6 0 1.3-.2 2-.4 1-.3 2.2-.6 3.5-1-1.6-4.8-3.2-10.8-4.6-16-1.5-5.9-2.9-10.8-3.7-12.1-.6-.7-1.8-1.7-2.9-2zM71.6 49c-1.4.9-2.8 1.7-3.9 2-1.5.4-2.3-.1-2.8-1.8-.4-1.5 0-2.4 1-3.4.5-.5 1.7-1.4 4.1-2.4.2.8 1 2.9 1.6 5.6z"/></g></g></g></svg><view id="wochentag_so" viewBox="202 0 120.5 96.8"/><svg version="1.1" id="baEbene_2" x="202" viewBox="-1 -1 120.5 96.8" xml:space="preserve" width="120.5" height="96.8" xmlns="http://www.w3.org/2000/svg"><style>.bawt_so_st0{opacity:.7;fill:#fff;enable-background:new}.bawt_so_st1{fill:#fff}</style><g id="baXMLID_1_"><path id="baXMLID_393_" class="bawt_so_st0" d="M0 0h110s14.9 28.1 5.3 51.3-26.7 45.5-66.2 43.4S0 61.3 0 61.3V0z"/><g id="baEbene_3"><g id="baXMLID_388_"><path id="baXMLID_392_" class="bawt_so_st1" d="M35.8 62.5c2.6-1.7 5.5-4.1 5.3-7.5s-2.4-5.8-5.2-10.5c-1.9-3.2-3.3-6.1-3.9-8.9-.7-3.2-.3-6.4 1.6-9.4 1.3-2.1 3.9-4.1 6.4-5.5l3.3 4.6c-2.5 1.3-4.2 3.2-4.9 4.3-1 1.5-1.1 3.3-.7 5.2.7 3 2.7 6.4 4.5 8.6 2.3 2.9 3.9 6.1 4.6 9.3 1 4.5 0 8.8-3.7 11.5-2 1.5-3.1 2.3-4.9 3.1l-2.4-4.8z"/><path id="baXMLID_389_" class="bawt_so_st1" d="M73.4 35.7c1.1 4.6 2.4 9.2 3.5 14.3.4 2.1.7 3.6.5 4.5-.6 2.8-2.4 3.7-6.5 4.6-.2.1-.5.1-.8.2-2.7.6-6 .9-7.1-2.4-1.3-4.1-2.3-8.2-3.3-12.1-1.1-4.1-1.9-7.4-2.7-11.4-.6-2.8.8-4.4 3.9-5.3.7-.3 1.8-.7 3.1-1 2.6-.6 5.8-.6 6.9 1.4 1.6 2.8 1.8 4.2 2.5 7.2zm-8.8-3.6c-1.3.3-2.6 1.4-2.1 3.1 1.3 5.9 4.2 18.3 5.1 19.2.5.5 1.5.7 2.4.5 1.1-.2 1.9-.9 1.9-2.1 0-1.9-2.3-11.9-4.4-18.9-.4-1.6-1.7-2.1-2.9-1.8z"/></g><g id="baXMLID_380_"><path id="baXMLID_385_" d="M34.4 61.9c2.5-1.8 5.2-3.2 5.5-7 .2-3.2-3-6.5-5.1-10-2.2-3.5-3.4-6.6-4-9.2-.9-3.9-.4-6.9.8-9.2 2.6-4.8 6.2-6.2 8.6-7.4 2 .2 4.9.6 6.9.7l4.7 6.7c-2.8 1.1-5.4 4.2-5.9 5.7-.6 2.1.8 5.4 3.1 8.5 3 3.7 5.7 8.6 6.8 13.3 1.1 4.6.5 9.1-3.1 12.2-2.3 2-4 3.1-7.5 5.2l-7.1-2.7-3.7-6.8zm4.5 5.3c1.8-.8 2.8-1.6 4.8-3.1 3.7-2.8 4.6-7.1 3.5-11.6-.7-3.2-2.4-6.4-4.7-9.3-1.9-2.2-3.9-5.5-4.6-8.5-.4-1.9-.4-3.7.6-5.2.7-1.1 2.4-3 4.9-4.3l-3.3-4.6c-2.5 1.4-5.1 3.5-6.4 5.5-1.9 3.1-2.2 6.2-1.4 9.4.6 2.8 2.1 5.7 4 8.9 2.9 4.7 5.1 7.1 5.4 10.5.2 3.4-2.7 5.8-5.2 7.5l2.4 4.8z"/><path id="baXMLID_381_" d="M76.9 63.5c-.5.1-.6.1-.6.1-4.9 1.1-12.4-3-13.1-4.5-1.4-3.1-2.7-7.2-3.5-10.5-1.1-4-3.1-11.7-4.1-15.7-1.1-4.7 3.5-6.4 8.2-7.5 6.8-1.6 15.4 1.1 16 3.7.7 3.2 1.1 6 1.9 9.3.6 2.6 2.6 12.9 3.1 16.9.7 4.6-.3 6.1-7.9 8.2zM64 26.7c-1.3.3-2.4.7-3.1 1-3.1 1-4.5 2.6-3.9 5.4.9 4 1.8 7.4 2.9 11.4 1.1 3.9 2.1 7.9 3.5 12 1.1 3.3 4.4 3 7.1 2.4.2-.1.5-.1.8-.2 4.1-1 6-1.9 6.5-4.7.2-.9-.1-2.4-.5-4.5-1.2-5-2.5-9.7-3.7-14.2-.8-3-1-4.5-2.6-7.3-1.1-2.1-4.3-1.9-7-1.3zm8.2 25.5c.1 1.2-.8 1.9-1.8 2.2-.9.2-1.9.1-2.4-.4-.9-.9-3.9-13.3-5.3-19.1-.4-1.7.8-2.8 2.1-3.1 1.2-.3 2.5.2 2.8 1.7 2.1 6.9 4.6 16.8 4.6 18.7z"/></g></g></g></svg></svg>